# xmcd CD database file
#
# Track frame offsets:
#	300
#	17685
#	35843
#	54985
#	74550
#	93675
#	115923
#	134718
#	153793
#	171725
#	187672
#	203555
#
# Disc length: 2988 seconds
#
# Revision: 0
# Processed by: cddbd v1.5.1PL0 Copyright (c) Steve Scherf et al.
# Submitted via: CDex 1.51
#
DISCID=ac0ba80c
DTITLE=Andrea Martin - The Best of Me
DYEAR=1998
DGENRE=R&B
TTITLE0=Andrea Martin - Let Me Return the Favor
TTITLE1=Andrea Martin - Baby Can I Hold You
TTITLE2=Andrea Martin - Share the Love
TTITLE3=Andrea Martin - Steppin'
TTITLE4=Andrea Martin - Breaking of My Heart
TTITLE5=Andrea Martin - Best of You
TTITLE6=Andrea Martin - Do You Really?
TTITLE7=Andrea Martin - Set It Off
TTITLE8=Andrea Martin - Hung Up
TTITLE9=Andrea Martin - How Could You Forget
TTITLE10=Andrea Martin - Dear Lord
TTITLE11=Andrea Martin - Best of You [I-Boogie Mix]
EXTD=YEAR: 1998
EXTT0=
EXTT1=
EXTT2=
EXTT3=
EXTT4=
EXTT5=
EXTT6=
EXTT7=
EXTT8=
EXTT9=
EXTT10=
EXTT11=
PLAYORDER=
